<svg id="Component_80_3" data-name="Component 80 – 3" xmlns="http://www.w3.org/2000/svg" width="145.55" height="50.964" viewBox="0 0 145.55 50.964">
  <g id="Group_26826" data-name="Group 26826" transform="translate(62.769 7.208)">
    <path id="Path_21853" data-name="Path 21853" d="M9899.488,2834.305v8.842H9887.3l3.1-5.5v-3.342H9875.43v3.342l3.1,5.5h-10.55l-9.643-9.887-3.063,2.785,6.963,7.1h-5.413c.054.046.113.1.176.156l.35.347c.206.209.938.976,1.252,1.359a.275.275,0,0,1,0,.383l-1.76,1.726h53.371v-12.812Zm-16.573,8.842-2.368-4.874h4.736Zm23.5,0h-3.271v-4.874h3.271Zm-50.67.189.222-.189h-9.086v-8.842h-10.724v8.842h-8.146v3.97h27.711q-.721-.68-1.44-1.448a.614.614,0,0,1-.069-.87C9855.013,2844.033,9855.466,2843.58,9855.745,2843.337Zm-12.659-.189h-3.271v-4.874h3.271Z" transform="translate(-9828.012 -2833.26)" fill="#005859"/>
  </g>
  <rect id="Rectangle_20014" data-name="Rectangle 20014" width="2.141" height="22.955" transform="translate(85.723 3.083) rotate(90)" fill="#d2d2d2"/>
  <rect id="Rectangle_20015" data-name="Rectangle 20015" width="2.141" height="28.726" transform="translate(130.943 3.083) rotate(90)" fill="#d2d2d2"/>
  <path id="Path_21854" data-name="Path 21854" d="M10189.185,2797.786l-.326,2.543-4.615.036-.256,1.993,10.828-.007.671-5.222Zm3.936,2.531-2.3-.017.089-.687,2.338-.259Z" transform="translate(-10050.2 -2797.128)" fill="#005859"/>
  <rect id="Rectangle_20016" data-name="Rectangle 20016" width="2.141" height="28.421" transform="translate(105.615 47.382) rotate(90)" fill="#d2d2d2"/>
  <rect id="Rectangle_20017" data-name="Rectangle 20017" width="2.141" height="18.423" transform="translate(145.55 47.382) rotate(90)" fill="#d2d2d2"/>
  <path id="Path_21855" data-name="Path 21855" d="M9908.73,2941.047a.6.6,0,0,0,.836.035l1.914-1.915a.27.27,0,0,0,.036-.348c-.313-.383-1.08-1.184-1.288-1.393l-.349-.348c-.418-.383-.662-.522-.766-.383l-.488.418c-.278.244-.731.731-1.531,1.5a.616.616,0,0,0,.069.87Q9907.948,2940.317,9908.73,2941.047Z" transform="translate(-9828.429 -2908.809)" fill="#005859"/>
  <path id="Path_21856" data-name="Path 21856" d="M9983.461,2939.871h-10.309V2919.19h4.214l-.07,16.71h6.295l-.162.14c-.279.243-.729.7-1.532,1.46a.617.617,0,0,0,.07.872Q9982.715,2939.168,9983.461,2939.871Z" transform="translate(-9881.428 -2894.838)" fill="#005859"/>
  <path id="Path_21857" data-name="Path 21857" d="M10032.843,3016.975h-2.961l1.465-1.465C10031.845,3016.009,10032.344,3016.508,10032.843,3016.975Z" transform="translate(-9926.84 -2971.942)" fill="#005859"/>
  <path id="Path_21858" data-name="Path 21858" d="M10033.357,3002.95l-.164.14c-.276.243-.66.66-1.393,1.356-.347-.383-.834-.87-.974-1.043l-.349-.349c-.04-.038-.08-.072-.116-.1Z" transform="translate(-9927.224 -2961.888)" fill="#005859"/>
  <path id="Path_21859" data-name="Path 21859" d="M10058.594,2958.63v12.812h-8.8l1.809-1.778a.271.271,0,0,0,0-.383c-.312-.383-1.043-1.149-1.253-1.357l-.347-.349c-.041-.038-.08-.072-.118-.1h4.463v-8.842Z" transform="translate(-9942.778 -2926.41)" fill="#005859"/>
  <path id="Path_21860" data-name="Path 21860" d="M10117.361,2936.46h-8.669V2927.9h-4.282v14.287h-4.213v4.178h8.5v-5.932h12.917v-20.541h-4.248Z" transform="translate(-9983.127 -2895.397)" fill="#005859"/>
  <rect id="Rectangle_20018" data-name="Rectangle 20018" width="4.213" height="20.541" rx="2.106" transform="translate(141.337 24.491)" fill="#005859"/>
  <path id="Path_21861" data-name="Path 21861" d="M10009.736,2922.69l-.335,2.55,14.259-.112-.189,1.445,2.424-.028.514-3.91Z" transform="translate(-9910.445 -2897.596)" fill="#d2d2d2"/>
  <path id="Path_21862" data-name="Path 21862" d="M9840.162,2958.281h-4.036v13.476h-4.105v-7.019h-4.177v10.984h12.318V2971.2h13.758v-11.09h-13.758Zm9.722,6.036v2.877h-9.722v-2.877Z" transform="translate(-9765.108 -2926.131)" fill="#005859"/>
  <g id="Group_26827" data-name="Group 26827" transform="translate(0 2.708)">
    <path id="Path_21863" data-name="Path 21863" d="M9530.711,2819.763a.83.83,0,0,0,.611-.242.823.823,0,0,0,0-1.166.894.894,0,0,0-1.223,0,.823.823,0,0,0,0,1.166A.828.828,0,0,0,9530.711,2819.763Z" transform="translate(-9526.572 -2816.634)"/>
    <path id="Path_21864" data-name="Path 21864" d="M9519.59,2819.763a.83.83,0,0,0,.611-.242.823.823,0,0,0,0-1.166.894.894,0,0,0-1.223,0,.823.823,0,0,0,0,1.166A.828.828,0,0,0,9519.59,2819.763Z" transform="translate(-9517.67 -2816.634)"/>
    <path id="Path_21865" data-name="Path 21865" d="M9655.457,2819.763a.841.841,0,0,0,.614-.242.812.812,0,0,0,0-1.166.843.843,0,0,0-.614-.242.824.824,0,0,0-.6.242.812.812,0,0,0,0,1.166A.822.822,0,0,0,9655.457,2819.763Z" transform="translate(-9626.437 -2816.634)"/>
    <path id="Path_21866" data-name="Path 21866" d="M9564.007,2810.7H9562.4v8.533h-2.076a1.142,1.142,0,0,1-.989-.37,1.583,1.583,0,0,1-.263-.938V2810.7h-1.635v7.794a1.147,1.147,0,0,1-.107.541.431.431,0,0,1-.419.2h-11.72a8.06,8.06,0,0,1-1-.043,4.981,4.981,0,0,0,1.223-1.593,3.487,3.487,0,0,0,.313-1.337,1.119,1.119,0,0,0-.171-.562,1.749,1.749,0,0,0-.513-.533,2.835,2.835,0,0,0-.867-.391,4.616,4.616,0,0,0-1.252-.149,4.515,4.515,0,0,0-.938.1,6.188,6.188,0,0,0-.917.27,6.068,6.068,0,0,0-.847.4,5.225,5.225,0,0,0-.711.484l.058,1.138a2.29,2.29,0,0,0,.213.434c.1.176.228.361.369.555s.3.392.47.59a7.013,7.013,0,0,0,.513.541,3.315,3.315,0,0,1-.413.071,4.719,4.719,0,0,1-.555.029h-20.808v-1.692a3.281,3.281,0,0,0-.191-1.145,2.545,2.545,0,0,0-.555-.9,2.512,2.512,0,0,0-.867-.583,2.939,2.939,0,0,0-1.117-.206,2.822,2.822,0,0,0-1.223.263,2.914,2.914,0,0,0-.953.718,3.4,3.4,0,0,0-.625,1.06,3.568,3.568,0,0,0-.229,1.273,3.275,3.275,0,0,0,.171,1.038,2.454,2.454,0,0,0,.555.917,2.811,2.811,0,0,0,.988.654,3.867,3.867,0,0,0,1.472.249h23.382a5.669,5.669,0,0,0,1.244-.142,4.106,4.106,0,0,0,1.173-.456,4.933,4.933,0,0,0,.982.4,5.438,5.438,0,0,0,1.593.2h11.818a2.184,2.184,0,0,0,1.039-.235,1.613,1.613,0,0,0,.683-.7,2.144,2.144,0,0,0,.575.646,1.569,1.569,0,0,0,.989.292h3.74Zm-46.266,8.533h-1a2.107,2.107,0,0,1-.576-.078,1.31,1.31,0,0,1-.491-.256,1.279,1.279,0,0,1-.341-.455,1.61,1.61,0,0,1-.128-.676,1.577,1.577,0,0,1,.113-.612,1.5,1.5,0,0,1,.3-.462,1.35,1.35,0,0,1,.42-.3,1.174,1.174,0,0,1,.49-.107,1.034,1.034,0,0,1,.9.434,2.143,2.143,0,0,1,.306,1.244Zm26.325-2.19a2.79,2.79,0,0,1-.312.526,3.7,3.7,0,0,1-.477.526.576.576,0,0,1-1.123-.014q-.264-.27-.491-.555t-.384-.526a2.855,2.855,0,0,1-.213-.37,2.9,2.9,0,0,1,.854-.32,4.446,4.446,0,0,1,1-.121q.227,0,.448.021a3.092,3.092,0,0,1,.4.064.87.87,0,0,1,.3.121.228.228,0,0,1,.114.192A1.137,1.137,0,0,1,9544.066,2817.042Z" transform="translate(-9513.56 -2810.699)"/>
    <path id="Path_21867" data-name="Path 21867" d="M9531.322,2904.447a.823.823,0,0,0,0-1.166.894.894,0,0,0-1.223,0,.823.823,0,0,0,0,1.166.893.893,0,0,0,1.223,0Z" transform="translate(-9526.572 -2884.617)"/>
    <path id="Path_21868" data-name="Path 21868" d="M9519.59,2904.689a.829.829,0,0,0,.611-.242.823.823,0,0,0,0-1.166.894.894,0,0,0-1.223,0,.823.823,0,0,0,0,1.166A.828.828,0,0,0,9519.59,2904.689Z" transform="translate(-9517.67 -2884.617)"/>
    <path id="Path_21869" data-name="Path 21869" d="M9513.831,2917.77a3.568,3.568,0,0,0-.229,1.273,3.276,3.276,0,0,0,.171,1.038,2.451,2.451,0,0,0,.555.917,2.812,2.812,0,0,0,.988.655,3.867,3.867,0,0,0,1.472.249h11.848a1.91,1.91,0,0,0,1.031-.27,1.981,1.981,0,0,0,.676-.683,2.223,2.223,0,0,0,.575.654,1.571,1.571,0,0,0,1,.3h6.314v-5.66h-1.621v4.01h-4.651a1.139,1.139,0,0,1-.98-.37,1.544,1.544,0,0,1-.27-.938v-2.7h-1.622v3.271a1.16,1.16,0,0,1-.106.54.432.432,0,0,1-.42.2h-9.2v-1.693a3.279,3.279,0,0,0-.191-1.145,2.545,2.545,0,0,0-.555-.9,2.512,2.512,0,0,0-.867-.583,2.935,2.935,0,0,0-1.117-.206,2.822,2.822,0,0,0-1.223.263,2.914,2.914,0,0,0-.953.718A3.4,3.4,0,0,0,9513.831,2917.77Zm1.492.405a1.505,1.505,0,0,1,.3-.462,1.361,1.361,0,0,1,.42-.3,1.174,1.174,0,0,1,.49-.107,1.034,1.034,0,0,1,.9.434,2.142,2.142,0,0,1,.306,1.244v1.266h-1a2.107,2.107,0,0,1-.576-.078,1.313,1.313,0,0,1-.491-.256,1.282,1.282,0,0,1-.341-.455,1.61,1.61,0,0,1-.128-.676A1.576,1.576,0,0,1,9515.323,2918.175Z" transform="translate(-9513.56 -2894.775)"/>
    <path id="Path_21870" data-name="Path 21870" d="M9596.753,2951.751a.783.783,0,0,0-.242.581.8.8,0,0,0,.242.6.908.908,0,0,0,1.223,0,.8.8,0,0,0,.242-.6.783.783,0,0,0-.242-.581.909.909,0,0,0-1.223,0Z" transform="translate(-9579.928 -2923.422)"/>
    <path id="Path_21871" data-name="Path 21871" d="M9585.7,2951.751a.782.782,0,0,0-.241.581.8.8,0,0,0,.241.6.909.909,0,0,0,1.224,0,.8.8,0,0,0,.242-.6.783.783,0,0,0-.242-.581.91.91,0,0,0-1.224,0Z" transform="translate(-9571.083 -2923.422)"/>
    <path id="Path_21872" data-name="Path 21872" d="M9629.053,2951.751a.833.833,0,0,0-.6-.236.849.849,0,0,0-.613.236.777.777,0,0,0-.247.581.792.792,0,0,0,.247.6.85.85,0,0,0,.613.237.834.834,0,0,0,.6-.237.792.792,0,0,0,.247-.6A.777.777,0,0,0,9629.053,2951.751Z" transform="translate(-9604.809 -2923.422)"/>
    <path id="Path_21873" data-name="Path 21873" d="M9661.007,2904.158h-2.8a8.011,8.011,0,0,1-1-.043,5,5,0,0,0,1.224-1.593,3.485,3.485,0,0,0,.313-1.337,1.109,1.109,0,0,0-.171-.562,1.742,1.742,0,0,0-.512-.533,2.83,2.83,0,0,0-.868-.391,4.615,4.615,0,0,0-1.252-.149,4.532,4.532,0,0,0-.937.1,6.225,6.225,0,0,0-.918.27,6.084,6.084,0,0,0-.846.4,5.164,5.164,0,0,0-.711.483l.057,1.138a2.359,2.359,0,0,0,.213.434q.157.264.37.555t.469.59a7.053,7.053,0,0,0,.513.54,3.284,3.284,0,0,1-.412.071,4.8,4.8,0,0,1-.555.029h-6.472a1.158,1.158,0,0,1-1-.37,1.583,1.583,0,0,1-.263-.938v-2.7h-1.622v5.3a2.527,2.527,0,0,1-.213,1.166.862.862,0,0,1-.839.4,3.256,3.256,0,0,1-.349-.021q-.192-.022-.363-.05l-.4-.085-.171,1.621a1.1,1.1,0,0,0,.178.043l.206.028c.114.019.249.036.406.05s.319.021.49.021a2.676,2.676,0,0,0,1.151-.234,2.4,2.4,0,0,0,.839-.647,2.773,2.773,0,0,0,.513-.967,4.029,4.029,0,0,0,.171-1.195v-.384a2.012,2.012,0,0,0,.555.427,1.558,1.558,0,0,0,.754.185h6.429a5.64,5.64,0,0,0,1.244-.142,4.164,4.164,0,0,0,1.174-.455,4.9,4.9,0,0,0,.98.4,5.437,5.437,0,0,0,1.593.2h4.438v-10.183h-1.608Zm-3.925-2.19a2.905,2.905,0,0,1-.312.526,3.792,3.792,0,0,1-.477.526,3.469,3.469,0,0,1-.591.441,3.529,3.529,0,0,1-.533-.455,7.306,7.306,0,0,1-.49-.554,6.2,6.2,0,0,1-.384-.527.476.476,0,1,1,.639-.689,4.468,4.468,0,0,1,1-.121q.227,0,.448.021a3.164,3.164,0,0,1,.405.064.873.873,0,0,1,.3.121.226.226,0,0,1,.113.192A1.136,1.136,0,0,1,9657.082,2901.968Z" transform="translate(-9615.937 -2878.682)"/>
    <rect id="Rectangle_20019" data-name="Rectangle 20019" width="1.607" height="10.183" transform="translate(49.01 16.943)"/>
    <path id="Path_21874" data-name="Path 21874" d="M9529.742,2988.206a.823.823,0,0,0,0,1.166.894.894,0,0,0,1.223,0,.825.825,0,0,0,0-1.166.894.894,0,0,0-1.223,0Z" transform="translate(-9526.286 -2952.599)"/>
    <path id="Path_21875" data-name="Path 21875" d="M9518.4,3001.443a2.5,2.5,0,0,0-.867-.583,2.933,2.933,0,0,0-1.117-.206,2.819,2.819,0,0,0-1.223.263,2.99,2.99,0,0,0-.96.718,3.256,3.256,0,0,0-.626,1.06,3.673,3.673,0,0,0-.221,1.272,3.249,3.249,0,0,0,.171,1.038,2.455,2.455,0,0,0,.555.917,2.813,2.813,0,0,0,.989.654,3.854,3.854,0,0,0,1.471.249h2.575v-3.342a3.281,3.281,0,0,0-.192-1.145A2.545,2.545,0,0,0,9518.4,3001.443Zm-.875,3.733h-1a2.1,2.1,0,0,1-.576-.078,1.317,1.317,0,0,1-.491-.256,1.291,1.291,0,0,1-.341-.455,1.61,1.61,0,0,1-.128-.676,1.577,1.577,0,0,1,.113-.612,1.5,1.5,0,0,1,.3-.462,1.369,1.369,0,0,1,.42-.3,1.143,1.143,0,0,1,.477-.107,1.052,1.052,0,0,1,.91.434,2.1,2.1,0,0,1,.313,1.244Z" transform="translate(-9513.389 -2962.758)"/>
    <path id="Path_21876" data-name="Path 21876" d="M9518.621,2988.206a.823.823,0,0,0,0,1.166.894.894,0,0,0,1.223,0,.823.823,0,0,0,0-1.166.894.894,0,0,0-1.223,0Z" transform="translate(-9517.383 -2952.599)"/>
    <path id="Path_21877" data-name="Path 21877" d="M9561.059,3001.812a2.889,2.889,0,0,0-1.017-.746,3.409,3.409,0,0,0-1.4-.271,3.634,3.634,0,0,0-1.706.441,4.333,4.333,0,0,0-1.437,1.223v-1.195h-1.636v4.025h-2.389a1.159,1.159,0,0,1-1-.37,1.577,1.577,0,0,1-.263-.939v-2.7h-1.621v5.3a2.527,2.527,0,0,1-.214,1.167.863.863,0,0,1-.839.4,3.208,3.208,0,0,1-.349-.021c-.128-.014-.249-.031-.362-.05l-.4-.085-.171,1.622a1.179,1.179,0,0,0,.178.042l.206.028c.114.019.249.036.405.05s.32.021.491.021a2.677,2.677,0,0,0,1.152-.235,2.412,2.412,0,0,0,.839-.647,2.778,2.778,0,0,0,.512-.967,4.028,4.028,0,0,0,.171-1.195v-.384a2.007,2.007,0,0,0,.555.427,1.556,1.556,0,0,0,.754.185h10.368v-2.574a4.733,4.733,0,0,0-.206-1.422A3.187,3.187,0,0,0,9561.059,3001.812Zm-.811,3.478h-4.722a3.461,3.461,0,0,1,1.08-2.126,3.179,3.179,0,0,1,.9-.583,2.415,2.415,0,0,1,.953-.206,2.385,2.385,0,0,1,.731.106,1.358,1.358,0,0,1,.569.348,1.607,1.607,0,0,1,.362.647,3.346,3.346,0,0,1,.129,1Z" transform="translate(-9539.696 -2962.87)"/>
    <path id="Path_21878" data-name="Path 21878" d="M9655.6,2989.083h-1.466a.566.566,0,0,0-.127-.015h-.513a1.488,1.488,0,0,1-.675-.127,1.033,1.033,0,0,1-.377-.3.894.894,0,0,1-.163-.375,1.849,1.849,0,0,1-.036-.325,3.728,3.728,0,0,0-.732-2.459,2.6,2.6,0,0,0-2.111-.876,2.855,2.855,0,0,0-2.1.9,3.021,3.021,0,0,0-.611.989,3.445,3.445,0,0,0-.221,1.251,2.6,2.6,0,0,1-.071.671,1.1,1.1,0,0,1-.191.41.592.592,0,0,1-.277.2,1.044,1.044,0,0,1-.313.049h-.554a.41.41,0,0,0-.108.015h-1.03a8.06,8.06,0,0,1-1-.043,4.967,4.967,0,0,0,1.223-1.593,3.469,3.469,0,0,0,.313-1.337,1.109,1.109,0,0,0-.171-.562,1.745,1.745,0,0,0-.512-.533,2.835,2.835,0,0,0-.868-.391,4.613,4.613,0,0,0-1.251-.149,4.518,4.518,0,0,0-.939.1,6.188,6.188,0,0,0-.917.27,5.977,5.977,0,0,0-.846.4,5.193,5.193,0,0,0-.712.484l.057,1.138a2.432,2.432,0,0,0,.214.434c.1.176.229.361.37.555s.3.391.47.59a7.243,7.243,0,0,0,.511.541,3.265,3.265,0,0,1-.412.071,4.713,4.713,0,0,1-.554.029h-2.348v-8.533h-1.621v10.183h3.969a5.662,5.662,0,0,0,1.244-.142,4.121,4.121,0,0,0,1.173-.455,4.92,4.92,0,0,0,.981.4,5.433,5.433,0,0,0,1.593.2h1.806a1.381,1.381,0,0,0,.84-.272,1.826,1.826,0,0,0,.569-.689,2.616,2.616,0,0,0,.874.746,2.817,2.817,0,0,0,1.344.287c.229,0,.45-.01.669-.029a2.477,2.477,0,0,0,.626-.136,2.014,2.014,0,0,0,.583-.337,2.569,2.569,0,0,0,.54-.631,1.853,1.853,0,0,0,.661.761,1.832,1.832,0,0,0,1.046.3h3.755V2980.55H9655.6Zm-12.8-2.19a2.851,2.851,0,0,1-.313.526,3.751,3.751,0,0,1-.476.526.577.577,0,0,1-1.125-.014q-.262-.27-.489-.555a6.489,6.489,0,0,1-.385-.526,3.112,3.112,0,0,1-.213-.37,2.915,2.915,0,0,1,.854-.32,4.466,4.466,0,0,1,1-.121c.152,0,.3.007.448.021a3.135,3.135,0,0,1,.405.064.878.878,0,0,1,.3.121.229.229,0,0,1,.113.192A1.151,1.151,0,0,1,9642.8,2986.893Zm7.588,1.858a1.449,1.449,0,0,1-2.006,0,1.556,1.556,0,0,1-.319-1,1.955,1.955,0,0,1,.106-.665,1.642,1.642,0,0,1,.283-.51,1.221,1.221,0,0,1,.42-.326,1.2,1.2,0,0,1,.513-.114,1.158,1.158,0,0,1,.5.114,1.221,1.221,0,0,1,.42.326,1.762,1.762,0,0,1,.291.51,1.841,1.841,0,0,1,.115.665A1.556,1.556,0,0,1,9650.389,2988.751Z" transform="translate(-9610.687 -2946.664)"/>
    <rect id="Rectangle_20020" data-name="Rectangle 20020" width="1.607" height="10.183" transform="translate(48.854 33.886)"/>
  </g>
</svg>
