<svg id="Component_79_1" data-name="Component 79 – 1" xmlns="http://www.w3.org/2000/svg" width="156.638" height="54.846" viewBox="0 0 156.638 54.846">
  <g id="Group_26824" data-name="Group 26824" transform="translate(67.551 7.757)">
    <path id="Path_21827" data-name="Path 21827" d="M9904.934,2834.385v9.516h-13.114l3.335-5.919v-3.6h-16.111v3.6l3.334,5.919h-11.354l-10.377-10.64-3.3,3,7.491,7.644h-5.825c.058.049.124.1.188.167l.378.374c.224.225,1.011,1.05,1.349,1.461a.3.3,0,0,1,0,.413l-1.9,1.857h57.437v-13.788ZM9887.1,2843.9l-2.549-5.245h5.1Zm25.29,0h-3.521v-5.245h3.521Zm-54.53.2.238-.2h-9.776v-9.516h-11.542v9.516h-8.766v4.272h29.821q-.775-.731-1.549-1.558a.657.657,0,0,1-.075-.936C9857.071,2844.854,9857.559,2844.366,9857.858,2844.1Zm-13.624-.2h-3.521v-5.245h3.521Z" transform="translate(-9828.013 -2833.26)" fill="#fff"/>
  </g>
  <rect id="Rectangle_20007" data-name="Rectangle 20007" width="2.304" height="24.703" transform="translate(92.252 3.318) rotate(90)" fill="rgba(206,253,255,0.65)"/>
  <rect id="Rectangle_20008" data-name="Rectangle 20008" width="2.304" height="30.914" transform="translate(140.919 3.318) rotate(90)" fill="rgba(206,253,255,0.65)"/>
  <path id="Path_21828" data-name="Path 21828" d="M10189.579,2797.836l-.352,2.736-4.966.038-.274,2.146,11.652-.008.722-5.62Zm4.235,2.724-2.479-.018.1-.74,2.518-.278Z" transform="translate(-10040.009 -2797.128)" fill="#fff"/>
  <rect id="Rectangle_20009" data-name="Rectangle 20009" width="2.304" height="30.586" transform="translate(113.66 50.992) rotate(90)" fill="rgba(206,253,255,0.65)"/>
  <rect id="Rectangle_20010" data-name="Rectangle 20010" width="2.304" height="19.826" transform="translate(156.637 50.992) rotate(90)" fill="rgba(206,253,255,0.65)"/>
  <path id="Path_21829" data-name="Path 21829" d="M9908.867,2941.383a.647.647,0,0,0,.9.037l2.061-2.061a.291.291,0,0,0,.039-.375c-.337-.412-1.163-1.274-1.387-1.5l-.374-.375c-.452-.412-.713-.562-.824-.412l-.526.449c-.3.262-.786.787-1.648,1.612a.664.664,0,0,0,.075.936Q9908.025,2940.6,9908.867,2941.383Z" transform="translate(-9822.45 -2906.689)" fill="#fff"/>
  <path id="Path_21830" data-name="Path 21830" d="M9984.246,2941.446h-11.094V2919.19h4.533l-.072,17.983h6.771l-.174.15c-.3.262-.785.749-1.648,1.572a.66.66,0,0,0,.076.938Q9983.441,2940.69,9984.246,2941.446Z" transform="translate(-9874.44 -2892.983)" fill="#fff"/>
  <path id="Path_21831" data-name="Path 21831" d="M10033.068,3017.086h-3.187l1.577-1.576C10031.992,3016.047,10032.53,3016.583,10033.068,3017.086Z" transform="translate(-9918.989 -2968.623)" fill="#fff"/>
  <path id="Path_21832" data-name="Path 21832" d="M10033.586,3002.95l-.178.151c-.3.261-.709.71-1.5,1.459-.375-.412-.9-.936-1.051-1.123l-.375-.375c-.041-.041-.084-.078-.123-.112Z" transform="translate(-9919.368 -2958.76)" fill="#fff"/>
  <path id="Path_21833" data-name="Path 21833" d="M10059.264,2958.63v13.788h-9.471l1.947-1.913a.293.293,0,0,0,0-.413c-.338-.412-1.123-1.237-1.35-1.46l-.373-.376c-.043-.041-.086-.077-.125-.111h4.8v-9.516Z" transform="translate(-9934.627 -2923.955)" fill="#fff"/>
  <path id="Path_21834" data-name="Path 21834" d="M10118.67,2937.723h-9.331v-9.217h-4.607v15.376h-4.533v4.5h9.141v-6.384h13.9v-22.105h-4.57Z" transform="translate(-9974.21 -2893.532)" fill="#fff"/>
  <rect id="Rectangle_20011" data-name="Rectangle 20011" width="4.533" height="22.106" rx="2.267" transform="translate(152.104 26.357)" fill="#fff"/>
  <path id="Path_21835" data-name="Path 21835" d="M10009.763,2922.693l-.361,2.745,15.343-.121-.2,1.555,2.609-.029.554-4.208Z" transform="translate(-9902.907 -2895.688)" fill="rgba(206,253,255,0.65)"/>
  <path id="Path_21836" data-name="Path 21836" d="M9841.1,2958.281h-4.344v14.5h-4.417v-7.553h-4.5v11.821H9841.1v-4.872h14.807v-11.935H9841.1Zm10.461,6.5v3.1H9841.1v-3.1Z" transform="translate(-9760.329 -2923.681)" fill="#fff"/>
  <g id="Group_26825" data-name="Group 26825" transform="translate(0 2.914)">
    <path id="Path_21837" data-name="Path 21837" d="M9530.775,2819.888a.892.892,0,0,0,.659-.26.888.888,0,0,0,0-1.255.965.965,0,0,0-1.317,0,.888.888,0,0,0,0,1.255A.892.892,0,0,0,9530.775,2819.888Z" transform="translate(-9526.322 -2816.521)" fill="#fff"/>
    <path id="Path_21838" data-name="Path 21838" d="M9519.657,2819.888a.88.88,0,0,0,.654-.26.881.881,0,0,0,0-1.255.96.96,0,0,0-1.313,0,.883.883,0,0,0,0,1.255A.888.888,0,0,0,9519.657,2819.888Z" transform="translate(-9517.589 -2816.521)" fill="#fff"/>
    <path id="Path_21839" data-name="Path 21839" d="M9655.522,2819.888a.909.909,0,0,0,.66-.26.879.879,0,0,0,0-1.255.913.913,0,0,0-.66-.26.892.892,0,0,0-.646.26.879.879,0,0,0,0,1.255A.889.889,0,0,0,9655.522,2819.888Z" transform="translate(-9624.292 -2816.521)" fill="#fff"/>
    <path id="Path_21840" data-name="Path 21840" d="M9567.846,2810.7h-1.73v9.183h-2.232a1.22,1.22,0,0,1-1.064-.4,1.694,1.694,0,0,1-.285-1.01V2810.7h-1.758v8.387a1.246,1.246,0,0,1-.115.582.467.467,0,0,1-.451.214H9547.6a8.617,8.617,0,0,1-1.07-.045,5.357,5.357,0,0,0,1.314-1.714,3.708,3.708,0,0,0,.338-1.438,1.174,1.174,0,0,0-.184-.6,1.889,1.889,0,0,0-.553-.574,3.043,3.043,0,0,0-.932-.421,4.977,4.977,0,0,0-1.348-.161,4.845,4.845,0,0,0-1.01.107,6.828,6.828,0,0,0-.988.291,6.627,6.627,0,0,0-.91.429,5.671,5.671,0,0,0-.764.521l.059,1.225a2.652,2.652,0,0,0,.232.466,6.524,6.524,0,0,0,.4.6q.231.314.5.635a7.315,7.315,0,0,0,.553.582,3.6,3.6,0,0,1-.443.076,5.2,5.2,0,0,1-.6.03H9519.8v-1.821a3.509,3.509,0,0,0-.207-1.233,2.67,2.67,0,0,0-1.529-1.591,3.156,3.156,0,0,0-1.2-.222,3.029,3.029,0,0,0-1.316.283,3.121,3.121,0,0,0-1.025.772,3.718,3.718,0,0,0-.676,1.141,3.875,3.875,0,0,0-.242,1.369,3.491,3.491,0,0,0,.182,1.117,2.669,2.669,0,0,0,.6.988,3.032,3.032,0,0,0,1.064.7,4.151,4.151,0,0,0,1.584.267h25.16a6.077,6.077,0,0,0,1.342-.153,4.427,4.427,0,0,0,1.262-.49,5.308,5.308,0,0,0,1.057.429,5.858,5.858,0,0,0,1.715.214h12.717a2.348,2.348,0,0,0,1.119-.252,1.72,1.72,0,0,0,.734-.758,2.334,2.334,0,0,0,.621.7,1.676,1.676,0,0,0,1.061.313h4.027Zm-49.789,9.183h-1.072a2.273,2.273,0,0,1-.619-.083,1.4,1.4,0,0,1-.527-.276,1.382,1.382,0,0,1-.369-.49,1.759,1.759,0,0,1-.137-.727,1.618,1.618,0,0,1,.443-1.156,1.476,1.476,0,0,1,.451-.321,1.272,1.272,0,0,1,.529-.115,1.117,1.117,0,0,1,.973.467,2.315,2.315,0,0,1,.328,1.339Zm28.33-2.357a2.958,2.958,0,0,1-.336.566,4.213,4.213,0,0,1-.512.566.621.621,0,0,1-1.211-.015,7.756,7.756,0,0,1-.527-.6,6.175,6.175,0,0,1-.412-.566,2.929,2.929,0,0,1-.23-.4,3.117,3.117,0,0,1,.918-.344,4.666,4.666,0,0,1,1.553-.107,3.374,3.374,0,0,1,.438.069.946.946,0,0,1,.32.13.246.246,0,0,1,.123.207A1.227,1.227,0,0,1,9546.387,2817.525Z" transform="translate(-9513.558 -2810.699)" fill="#fff"/>
    <path id="Path_21841" data-name="Path 21841" d="M9531.435,2904.555a.889.889,0,0,0,0-1.256.965.965,0,0,0-1.317,0,.889.889,0,0,0,0,1.256.964.964,0,0,0,1.317,0Z" transform="translate(-9526.322 -2883.214)" fill="#fff"/>
    <path id="Path_21842" data-name="Path 21842" d="M9519.657,2904.815a.882.882,0,0,0,.654-.26.882.882,0,0,0,0-1.256.96.96,0,0,0-1.313,0,.884.884,0,0,0,0,1.256A.89.89,0,0,0,9519.657,2904.815Z" transform="translate(-9517.589 -2883.214)" fill="#fff"/>
    <path id="Path_21843" data-name="Path 21843" d="M9513.846,2917.926a3.875,3.875,0,0,0-.242,1.369,3.492,3.492,0,0,0,.182,1.117,2.671,2.671,0,0,0,.6.987,3.026,3.026,0,0,0,1.064.7,4.14,4.14,0,0,0,1.584.268h12.748a2.049,2.049,0,0,0,1.109-.291,2.121,2.121,0,0,0,.729-.735,2.39,2.39,0,0,0,.621.7,1.678,1.678,0,0,0,1.076.322h6.8v-6.092h-1.744v4.316h-5.006a1.229,1.229,0,0,1-1.057-.4,1.67,1.67,0,0,1-.291-1.01v-2.908h-1.742v3.52a1.268,1.268,0,0,1-.115.582.469.469,0,0,1-.451.214h-9.9v-1.821a3.509,3.509,0,0,0-.207-1.232,2.673,2.673,0,0,0-1.529-1.592,3.156,3.156,0,0,0-1.2-.222,3.029,3.029,0,0,0-1.316.283,3.115,3.115,0,0,0-1.025.773A3.715,3.715,0,0,0,9513.846,2917.926Zm1.607.436a1.69,1.69,0,0,1,.322-.5,1.468,1.468,0,0,1,.451-.322,1.268,1.268,0,0,1,.529-.115,1.116,1.116,0,0,1,.973.467,2.314,2.314,0,0,1,.328,1.339v1.362h-1.072a2.255,2.255,0,0,1-.619-.084,1.375,1.375,0,0,1-.9-.765,1.76,1.76,0,0,1-.137-.727A1.712,1.712,0,0,1,9515.453,2918.361Z" transform="translate(-9513.558 -2893.179)" fill="#fff"/>
    <path id="Path_21844" data-name="Path 21844" d="M9596.772,2951.77a.843.843,0,0,0-.261.625.862.862,0,0,0,.261.641.977.977,0,0,0,1.315,0,.857.857,0,0,0,.26-.641.839.839,0,0,0-.26-.625.977.977,0,0,0-1.315,0Z" transform="translate(-9578.665 -2921.282)" fill="#fff"/>
    <path id="Path_21845" data-name="Path 21845" d="M9585.722,2951.77a.842.842,0,0,0-.259.625.86.86,0,0,0,.259.641.979.979,0,0,0,1.316,0,.854.854,0,0,0,.261-.641.836.836,0,0,0-.261-.625.979.979,0,0,0-1.316,0Z" transform="translate(-9569.989 -2921.282)" fill="#fff"/>
    <path id="Path_21846" data-name="Path 21846" d="M9629.163,2951.77a.892.892,0,0,0-.645-.254.924.924,0,0,0-.662.254.835.835,0,0,0-.264.625.853.853,0,0,0,.264.641.923.923,0,0,0,.662.254.891.891,0,0,0,.645-.254.851.851,0,0,0,.266-.641A.833.833,0,0,0,9629.163,2951.77Z" transform="translate(-9603.073 -2921.282)" fill="#fff"/>
    <path id="Path_21847" data-name="Path 21847" d="M9662.493,2904.808h-3.015a8.594,8.594,0,0,1-1.07-.046,5.293,5.293,0,0,0,1.313-1.714,3.739,3.739,0,0,0,.337-1.439,1.2,1.2,0,0,0-.182-.6,1.92,1.92,0,0,0-.552-.574,3.065,3.065,0,0,0-.933-.421,4.979,4.979,0,0,0-1.349-.161,4.878,4.878,0,0,0-1.01.107,6.635,6.635,0,0,0-1.9.72,5.564,5.564,0,0,0-.764.52l.06,1.224a2.571,2.571,0,0,0,.23.467c.112.189.244.388.4.6s.321.421.5.635a7.587,7.587,0,0,0,.552.582,3.563,3.563,0,0,1-.443.076,5.135,5.135,0,0,1-.6.031h-6.962a1.252,1.252,0,0,1-1.081-.4,1.7,1.7,0,0,1-.283-1.01v-2.909H9644v5.709a2.745,2.745,0,0,1-.23,1.255.927.927,0,0,1-.9.429,3.426,3.426,0,0,1-.377-.023c-.137-.015-.266-.033-.39-.054l-.43-.092-.184,1.745a1.284,1.284,0,0,0,.192.046l.222.031c.122.02.267.038.437.054s.344.023.529.023a2.874,2.874,0,0,0,1.238-.253,2.572,2.572,0,0,0,.9-.7,2.963,2.963,0,0,0,.55-1.041,4.36,4.36,0,0,0,.184-1.286v-.413a2.162,2.162,0,0,0,.6.459,1.681,1.681,0,0,0,.812.2h6.917a6.1,6.1,0,0,0,1.34-.153,4.448,4.448,0,0,0,1.263-.49,5.316,5.316,0,0,0,1.057.428,5.841,5.841,0,0,0,1.714.214h4.777v-10.959h-1.731Zm-4.225-2.357a2.991,2.991,0,0,1-.336.567,4.113,4.113,0,0,1-.512.566,3.967,3.967,0,0,1-.636.474,3.724,3.724,0,0,1-.574-.49,7.28,7.28,0,0,1-.527-.6,6.491,6.491,0,0,1-.414-.566,3.288,3.288,0,0,1-.23-.4,3.113,3.113,0,0,1,.918-.344,4.817,4.817,0,0,1,1.071-.13c.164,0,.324.008.483.023a3.367,3.367,0,0,1,.436.069.926.926,0,0,1,.321.13.246.246,0,0,1,.124.207A1.229,1.229,0,0,1,9658.269,2902.451Z" transform="translate(-9613.989 -2877.391)" fill="#fff"/>
    <rect id="Rectangle_20012" data-name="Rectangle 20012" width="1.73" height="10.959" transform="translate(52.744 18.234)" fill="#fff"/>
    <path id="Path_21848" data-name="Path 21848" d="M9529.762,2988.224a.883.883,0,0,0,0,1.255.96.96,0,0,0,1.313,0,.881.881,0,0,0,0-1.255.959.959,0,0,0-1.313,0Z" transform="translate(-9526.041 -2949.905)" fill="#fff"/>
    <path id="Path_21849" data-name="Path 21849" d="M9518.782,3001.5a2.681,2.681,0,0,0-.933-.628,3.162,3.162,0,0,0-1.2-.221,3.045,3.045,0,0,0-1.316.283,3.226,3.226,0,0,0-1.034.773,3.492,3.492,0,0,0-.673,1.14,3.986,3.986,0,0,0-.235,1.37,3.471,3.471,0,0,0,.184,1.117,2.626,2.626,0,0,0,.6.987,3.008,3.008,0,0,0,1.063.7,4.163,4.163,0,0,0,1.586.268h2.769v-3.6a3.576,3.576,0,0,0-.2-1.232A2.75,2.75,0,0,0,9518.782,3001.5Zm-.941,4.017h-1.07a2.277,2.277,0,0,1-.62-.084,1.4,1.4,0,0,1-.527-.276,1.375,1.375,0,0,1-.369-.49,1.742,1.742,0,0,1-.136-.727,1.709,1.709,0,0,1,.12-.658,1.651,1.651,0,0,1,.321-.5,1.487,1.487,0,0,1,.454-.321,1.22,1.22,0,0,1,.512-.115,1.128,1.128,0,0,1,.979.467,2.26,2.26,0,0,1,.337,1.339Z" transform="translate(-9513.389 -2959.87)" fill="#fff"/>
    <path id="Path_21850" data-name="Path 21850" d="M9518.639,2988.224a.888.888,0,0,0,0,1.255.963.963,0,0,0,1.315,0,.885.885,0,0,0,0-1.255.961.961,0,0,0-1.315,0Z" transform="translate(-9517.308 -2949.905)" fill="#fff"/>
    <path id="Path_21851" data-name="Path 21851" d="M9562.186,3001.889a3.088,3.088,0,0,0-1.094-.8,3.663,3.663,0,0,0-1.508-.291,3.911,3.911,0,0,0-1.837.474,4.645,4.645,0,0,0-1.546,1.316V3001.3h-1.761v4.332h-2.569a1.247,1.247,0,0,1-1.081-.4,1.708,1.708,0,0,1-.283-1.01v-2.909h-1.743v5.709a2.705,2.705,0,0,1-.232,1.256.925.925,0,0,1-.9.429,3.313,3.313,0,0,1-.375-.024c-.139-.015-.268-.033-.39-.053l-.43-.092-.182,1.745a1.154,1.154,0,0,0,.188.045l.224.031c.122.02.268.038.435.053s.346.023.529.023a2.856,2.856,0,0,0,1.238-.253,2.583,2.583,0,0,0,.905-.7,2.99,2.99,0,0,0,.55-1.041,4.3,4.3,0,0,0,.184-1.286v-.413a2.158,2.158,0,0,0,.6.46,1.674,1.674,0,0,0,.811.2h11.157v-2.77a5.112,5.112,0,0,0-.22-1.531A3.418,3.418,0,0,0,9562.186,3001.889Zm-.872,3.742h-5.081a3.683,3.683,0,0,1,1.163-2.288,3.4,3.4,0,0,1,.965-.628,2.593,2.593,0,0,1,1.813-.107,1.465,1.465,0,0,1,.613.375,1.714,1.714,0,0,1,.388.7,3.534,3.534,0,0,1,.14,1.08Z" transform="translate(-9539.198 -2959.981)" fill="#fff"/>
    <path id="Path_21852" data-name="Path 21852" d="M9657.175,2989.734H9655.6a.569.569,0,0,0-.136-.016h-.551a1.621,1.621,0,0,1-.729-.136,1.108,1.108,0,0,1-.4-.327.94.94,0,0,1-.176-.4,1.984,1.984,0,0,1-.039-.35,4.013,4.013,0,0,0-.789-2.646,2.8,2.8,0,0,0-2.272-.943,3.076,3.076,0,0,0-2.257.966,3.209,3.209,0,0,0-.658,1.064,3.7,3.7,0,0,0-.238,1.346,2.788,2.788,0,0,1-.076.722,1.181,1.181,0,0,1-.206.441.636.636,0,0,1-.3.214,1.134,1.134,0,0,1-.337.052h-.6a.43.43,0,0,0-.117.016h-1.109a8.577,8.577,0,0,1-1.07-.046,5.369,5.369,0,0,0,1.316-1.714,3.754,3.754,0,0,0,.336-1.439,1.2,1.2,0,0,0-.184-.6,1.836,1.836,0,0,0-.552-.574,3.013,3.013,0,0,0-.934-.421,5,5,0,0,0-1.347-.161,4.834,4.834,0,0,0-1.009.107,6.563,6.563,0,0,0-.987.29,6.647,6.647,0,0,0-.912.428,5.651,5.651,0,0,0-.765.521l.063,1.224a2.539,2.539,0,0,0,.228.467q.17.283.4.6c.153.209.321.42.506.635a8,8,0,0,0,.551.582,3.746,3.746,0,0,1-.443.076,5.3,5.3,0,0,1-.6.031h-2.524v-9.183h-1.746v10.958h4.271a6.117,6.117,0,0,0,1.34-.153,4.454,4.454,0,0,0,1.263-.49,5.224,5.224,0,0,0,1.055.428,5.852,5.852,0,0,0,1.716.214h1.943a1.488,1.488,0,0,0,.9-.293,1.963,1.963,0,0,0,.611-.741,2.832,2.832,0,0,0,.941.8,3.027,3.027,0,0,0,1.446.309c.246,0,.484-.01.72-.031a2.665,2.665,0,0,0,.674-.147,2.193,2.193,0,0,0,.627-.362,2.785,2.785,0,0,0,.582-.68,1.987,1.987,0,0,0,1.836,1.143h4.042V2980.55h-1.729Zm-13.776-2.358a3,3,0,0,1-.337.566,3.869,3.869,0,0,1-.512.566.62.62,0,0,1-1.209-.014q-.283-.292-.529-.6c-.164-.2-.3-.394-.414-.567a3.513,3.513,0,0,1-.229-.4,3.139,3.139,0,0,1,.917-.344,4.843,4.843,0,0,1,1.074-.13c.163,0,.323.008.482.023a3.3,3.3,0,0,1,.435.069.942.942,0,0,1,.321.13.247.247,0,0,1,.122.207A1.234,1.234,0,0,1,9643.4,2987.376Zm8.166,2a1.557,1.557,0,0,1-2.157,0,1.669,1.669,0,0,1-.344-1.074,2.143,2.143,0,0,1,.113-.716,1.791,1.791,0,0,1,.306-.548,1.289,1.289,0,0,1,1-.472,1.253,1.253,0,0,1,.536.122,1.283,1.283,0,0,1,.45.351,1.962,1.962,0,0,1,.314.548,2.024,2.024,0,0,1,.122.716A1.68,1.68,0,0,1,9651.564,2989.376Z" transform="translate(-9608.838 -2944.083)" fill="#fff"/>
    <rect id="Rectangle_20013" data-name="Rectangle 20013" width="1.73" height="10.959" transform="translate(52.575 36.467)" fill="#fff"/>
  </g>
</svg>
